# xmcd CD database file
#
# Track frame offsets:
#	150
#	20961
#	46996
#	68118
#	90341
#	108211
#	131429
#	152393
#	173165
#	196312
#	218200
#	240419
#	262947
#	288591
#
# Disc length: 4127 seconds
#
# Revision: 0
# Processed by: cddbd v1.5.1PL0 Copyright (c) Steve Scherf et al.
# Submitted via: freeDB plugin v1.0
#
DISCID=b8101d0e
DTITLE=槇原敬之 - シングルス
DYEAR=1900
DGENRE=Rock
TTITLE0=HAPPY DANCE
TTITLE1=STRIPE!
TTITLE2=Hungry Spider
TTITLE3=桃
TTITLE4=Are You OK_
TTITLE5=雨ニモ負ケズ
TTITLE6=花火の夜
TTITLE7=これはただの例え話じゃない
TTITLE8=Wow
TTITLE9=君の名前を呼んだ後に
TTITLE10=Good Morning!
TTITLE11=優しい歌が歌えない
TTITLE12=僕が一番欲しかったもの
TTITLE13=世界に一つだけの花
EXTD=
EXTT0=
EXTT1=
EXTT2=
EXTT3=
EXTT4=
EXTT5=
EXTT6=
EXTT7=
EXTT8=
EXTT9=
EXTT10=
EXTT11=
EXTT12=
EXTT13=
PLAYORDER=
